<?xml version="1.0" encoding="utf-8"?>
<!-- Generator: Adobe Illustrator 16.0.4, SVG Export Plug-In . SVG Version: 6.00 Build 0)  -->
<!DOCTYPE svg PUBLIC "-//W3C//DTD SVG 1.1//EN" "http://www.w3.org/Graphics/SVG/1.1/DTD/svg11.dtd">
<svg version="1.1" id="Layer_1" xmlns="http://www.w3.org/2000/svg" xmlns:xlink="http://www.w3.org/1999/xlink" x="0px" y="0px"
	 width="51.182px" height="30.354px" viewBox="-39.164 0.001 51.182 30.354" enable-background="new -39.164 0.001 51.182 30.354"
	 xml:space="preserve">
<polyline fill="none" stroke="#D82624" stroke-width="2" stroke-miterlimit="10" points="0.931,29.993 6.681,15.177 0.931,0.363 "/>
<polyline fill="none" stroke="#D82624" stroke-width="2" stroke-miterlimit="10" points="5.194,29.993 10.944,15.177 5.194,0.363 
	"/>
<g>
	<g>
		<path fill="#D82624" d="M-38.878,30.294c0.432-0.282,0.847-0.588,1.234-0.933c1.119-0.991,1.97-2.197,2.729-3.472
			c0.686-1.149,1.339-2.317,2.025-3.465c0.678-1.13,1.44-2.198,2.403-3.108c0.456-0.431,0.951-0.811,1.486-1.139
			c0.106-0.065,0.168-0.06,0.256,0.03c0.617,0.625,1.237,1.246,1.862,1.862c0.102,0.102,0.088,0.134-0.04,0.183
			c-1.29,0.503-2.407,1.271-3.415,2.211c-1.081,1.006-2.005,2.151-2.954,3.276c-0.888,1.055-1.797,2.089-2.872,2.961
			C-36.984,29.372-37.88,29.917-38.878,30.294z"/>
		<path fill="#D82624" d="M-9.018,0.062c-1.354,0.847-2.375,2.007-3.26,3.301C-13.11,4.579-13.8,5.88-14.542,7.15
			c-0.692,1.187-1.419,2.348-2.349,3.365c-0.59,0.649-1.252,1.212-2,1.672c-0.12,0.074-0.188,0.064-0.285-0.035
			c-0.612-0.621-1.229-1.237-1.85-1.851c-0.103-0.102-0.087-0.133,0.039-0.183c1.36-0.523,2.521-1.352,3.567-2.353
			c1.065-1.02,1.983-2.173,2.936-3.296c0.908-1.071,1.847-2.113,2.962-2.979c0.738-0.571,1.536-1.038,2.399-1.397
			C-9.087,0.082-9.052,0.073-9.018,0.062z"/>
		<path fill="#D82624" d="M-39.158,0.305c0.215,0.352,0.44,0.673,0.689,0.978c0.936,1.146,2.104,2.012,3.347,2.79
			c1.23,0.772,2.52,1.446,3.758,2.202c1.113,0.681,2.182,1.418,3.096,2.359c0.469,0.482,0.879,1.009,1.227,1.585
			c0.044,0.074,0.081,0.131-0.002,0.213c-0.664,0.657-1.323,1.32-1.98,1.977c-0.069-0.008-0.067-0.063-0.082-0.1
			c-0.502-1.305-1.28-2.43-2.229-3.444c-0.987-1.055-2.107-1.962-3.208-2.889c-1.137-0.958-2.253-1.936-3.172-3.115
			c-0.578-0.74-1.053-1.542-1.415-2.409C-39.148,0.413-39.177,0.376-39.158,0.305z"/>
		<path fill="#D82624" d="M-8.924,30.055c-0.28-0.466-0.602-0.893-0.958-1.292c-0.96-1.069-2.119-1.886-3.334-2.631
			c-1.276-0.781-2.605-1.474-3.871-2.272c-1.174-0.742-2.281-1.562-3.181-2.638c-0.284-0.34-0.537-0.701-0.771-1.078
			c-0.056-0.09-0.058-0.145,0.022-0.225c0.635-0.626,1.264-1.257,1.891-1.889c0.079-0.079,0.113-0.094,0.16,0.028
			c0.574,1.504,1.519,2.757,2.648,3.881c0.897,0.894,1.879,1.688,2.846,2.502c1.097,0.926,2.171,1.875,3.065,3.007
			c0.599,0.758,1.091,1.577,1.46,2.471C-8.928,29.956-8.889,29.991-8.924,30.055z"/>
		<path fill="#D82624" d="M-35.296,15.271c1.273,0.268,2.494-0.027,3.71-0.354c0.878-0.236,1.749-0.501,2.655-0.608
			c0.601-0.071,1.197-0.061,1.791,0.063c0.13,0.025,0.19,0.071,0.187,0.222c-0.012,0.422-0.006,0.846-0.003,1.27
			c0.001,0.104-0.021,0.137-0.127,0.091c-1.141-0.492-2.334-0.494-3.54-0.396c-0.957,0.078-1.912,0.195-2.874,0.132
			C-34.118,15.651-34.72,15.524-35.296,15.271z"/>
		<path fill="#D82624" d="M-12.696,15.09c-0.188-0.027-0.379-0.062-0.57-0.081c-0.946-0.097-1.86,0.094-2.77,0.325
			c-0.941,0.238-1.868,0.541-2.834,0.682c-0.661,0.095-1.32,0.104-1.979-0.034c-0.142-0.028-0.196-0.084-0.193-0.235
			c0.011-0.417,0.005-0.834,0.003-1.251c0-0.089-0.001-0.15,0.122-0.098c1.102,0.479,2.256,0.49,3.425,0.403
			c1.031-0.077,2.062-0.221,3.101-0.132C-13.802,14.719-13.235,14.842-12.696,15.09z"/>
		<path fill="#D82624" d="M-23.916,26.405c0.302-1.374-0.052-2.668-0.403-3.962c-0.24-0.89-0.498-1.774-0.568-2.701
			c-0.039-0.507-0.012-1.009,0.096-1.507c0.023-0.113,0.062-0.174,0.196-0.171c0.423,0.009,0.846,0.004,1.27,0.002
			c0.092,0,0.166-0.007,0.107,0.13c-0.438,1.021-0.484,2.095-0.415,3.183c0.051,0.812,0.155,1.621,0.173,2.438
			c0.018,0.814-0.062,1.615-0.342,2.386C-23.829,26.269-23.831,26.351-23.916,26.405z"/>
		<path fill="#D82624" d="M-24.148,3.89c-0.026,0.186-0.06,0.365-0.08,0.545c-0.1,0.954,0.094,1.874,0.326,2.789
			c0.221,0.855,0.488,1.698,0.641,2.571c0.127,0.733,0.159,1.468,0.012,2.204c-0.032,0.16-0.089,0.23-0.269,0.225
			c-0.411-0.015-0.821-0.006-1.232-0.003c-0.107,0.001-0.132-0.024-0.087-0.129c0.47-1.09,0.486-2.233,0.404-3.389
			c-0.075-1.045-0.227-2.087-0.137-3.14c0.047-0.544,0.165-1.072,0.354-1.584C-24.203,3.949-24.202,3.905-24.148,3.89z"/>
		<path fill="#D82624" d="M-21.904,12.906c-0.396,0.351-0.58,0.843-0.866,1.266c-0.105,0.157-0.229,0.298-0.375,0.423
			c-0.1,0.085-0.174,0.098-0.266-0.013c-0.055-0.065-0.139-0.108-0.251-0.191c0.546-0.216,0.829-0.625,1.151-0.992
			C-22.337,13.201-22.156,13.013-21.904,12.906z"/>
		<path fill="#D82624" d="M-21.8,17.25c-0.317-0.324-0.726-0.505-1.102-0.733c-0.222-0.135-0.426-0.29-0.595-0.491
			c-0.088-0.104-0.091-0.181,0.021-0.262c0.031-0.021,0.059-0.049,0.082-0.08c0.086-0.115,0.135-0.103,0.196,0.029
			c0.13,0.28,0.354,0.485,0.586,0.683c0.279,0.236,0.569,0.461,0.771,0.774C-21.825,17.197-21.813,17.224-21.8,17.25z"/>
		<path fill="#D82624" d="M-26.288,13.018c0.318,0.335,0.732,0.517,1.111,0.748c0.221,0.135,0.427,0.287,0.594,0.489
			c0.085,0.103,0.097,0.181-0.02,0.262c-0.029,0.021-0.058,0.05-0.08,0.08c-0.084,0.108-0.133,0.11-0.196-0.029
			c-0.13-0.279-0.354-0.484-0.587-0.681c-0.283-0.24-0.578-0.469-0.779-0.789C-26.26,13.072-26.275,13.045-26.288,13.018z"/>
		<path fill="#D82624" d="M-26.155,17.394c0.304-0.298,0.485-0.676,0.695-1.033c0.128-0.218,0.264-0.429,0.452-0.602
			c0.206-0.189,0.201-0.183,0.404,0.005c0.119,0.111,0.129,0.162-0.034,0.237c-0.274,0.127-0.474,0.352-0.665,0.579
			c-0.221,0.258-0.428,0.528-0.713,0.725C-26.06,17.336-26.108,17.363-26.155,17.394z"/>
	</g>
</g>
</svg>
